# xmcd 2.0 CD database file
#
# Track frame offsets:
#	183
#	13115
#	27540
#	46928
#	58153
#	69805
#	81463
#	96393
#	109373
#	119568
#	130673
#	143570
#	162325
#	174753
#	188255
#
# Disc length: 2703 seconds
#
# Revision: 1
# Processed by: cddbd v1.4PL0 Copyright (c) Steve Scherf et al.
# Submitted via: wdb2cddb 1.0
#
DISCID=c80a8d0f
DTITLE=Sonny Boy Williamson II - Chicago Blues - Vol.2 disc 2
DYEAR=1900
DGENRE=
TTITLE0=All My Love In Vain
TTITLE1=Help Me
TTITLE2=Nine Below Zero
TTITLE3=Got To Move
TTITLE4=She Got Next To Me
TTITLE5=Born Blind
TTITLE6=I Can't Be Alone
TTITLE7=Keep Your Hand Out Of My Pocket
TTITLE8=Too Close Together
TTITLE9=Understand My Life
TTITLE10=Like Wolf
TTITLE11=99
TTITLE12=Santa Claus
TTITLE13=Your Imagination
TTITLE14=The Key
EXTD=
EXTT0=
EXTT1=
EXTT2=
EXTT3=
EXTT4=
EXTT5=
EXTT6=
EXTT7=
EXTT8=
EXTT9=
EXTT10=
EXTT11=
EXTT12=
EXTT13=
EXTT14=
PLAYORDER=
